<svg width="7" height="7" viewBox="0 0 7 7" fill="none" xmlns="http://www.w3.org/2000/svg">
<mask id="mask0_595_78" style="mask-type:alpha" maskUnits="userSpaceOnUse" x="0" y="0" width="7" height="7">
<circle cx="3.5" cy="3.5" r="3.5" fill="#D9D9D9"/>
</mask>
<g mask="url(#mask0_595_78)">
<path d="M6.8 -1H0.2C-0.462742 -1 -1 -0.328427 -1 0.5V6.5C-1 7.32843 -0.462742 8 0.2 8H6.8C7.46274 8 8 7.32843 8 6.5V0.5C8 -0.328427 7.46274 -1 6.8 -1Z" fill="#071B65"/>
<path d="M0.2303 -1H0.2C-0.3943 -1 -0.8845 -0.4585 -0.9799 0.25025L6.7697 8H6.8C7.3943 8 7.8845 7.4585 7.9799 6.74975L0.2303 -1Z" fill="white"/>
<path d="M5.375 4.62504H4.625L7.6052 7.60516C7.7213 7.47279 7.8164 7.31379 7.8839 7.13379L5.375 4.62504Z" fill="#B92932"/>
<path d="M-0.883904 -0.134103L1.625 2.37502H2.375L-0.605204 -0.605103C-0.721304 -0.472728 -0.816404 -0.314103 -0.883904 -0.134103Z" fill="#B92932"/>
<path d="M0.2 8H0.2303L7.9799 0.25025C7.8845 -0.458875 7.3943 -1 6.8 -1H6.7697L-0.9799 6.74975C-0.8845 7.45888 -0.3943 8 0.2 8Z" fill="white"/>
<path d="M4.4 -1H2.6V8H4.4V-1Z" fill="white"/>
<path d="M8 2.375H-1V4.625H8V2.375Z" fill="white"/>
<path d="M4.1 -1H2.9V8H4.1V-1Z" fill="#B92932"/>
<path d="M8 4.24997V2.74997L-1 2.74997V4.24997L8 4.24997Z" fill="#B92932"/>
<path d="M7.1666 -0.921234L4.4 1.84477V2.37502H4.625L7.6079 -0.602484C7.4822 -0.746484 7.3325 -0.854109 7.1666 -0.921234Z" fill="#B92932"/>
<path d="M-0.601601 7.60884C-0.477401 7.74909 -0.330401 7.85484 -0.167501 7.92084L2.6 5.15334V4.62534H2.375L-0.601601 7.60884Z" fill="#B92932"/>
</g>
</svg>
