<svg width="20" height="8" viewBox="0 0 20 8" fill="none" xmlns="http://www.w3.org/2000/svg">
<path d="M10.0297 2.08575C10.0286 2.12004 10.0142 2.15254 9.98955 2.17639C9.96488 2.20024 9.93192 2.21357 9.8976 2.21355H8.5362C8.44699 2.21355 8.37248 2.14121 8.37248 2.0532C8.37248 1.65606 8.23504 1.46268 7.95388 1.46268C7.67273 1.46268 7.4914 1.63532 7.4861 1.93697C7.48007 2.27334 7.67032 2.57909 8.21189 3.10427C8.9249 3.77315 9.21063 4.3656 9.19689 5.14878C9.17447 6.41518 8.3134 7.23381 7.00312 7.23381C6.33399 7.23381 5.8228 7.05489 5.48281 6.70188C5.13776 6.34333 4.97958 5.81719 5.01261 5.13817C5.01375 5.10384 5.02819 5.07131 5.05291 5.04744C5.07762 5.02359 5.11066 5.0103 5.14499 5.01038H6.55317C6.5728 5.01069 6.59209 5.01534 6.60969 5.02402C6.6273 5.03271 6.64273 5.04517 6.65493 5.06053C6.66559 5.07324 6.67338 5.08807 6.67776 5.10406C6.68218 5.12002 6.68312 5.13675 6.68049 5.15312C6.66482 5.39811 6.7075 5.58112 6.80395 5.6824C6.86568 5.74798 6.95176 5.78126 7.05906 5.78126C7.31924 5.78126 7.47163 5.59752 7.47741 5.2773C7.48224 5.00049 7.39471 4.75792 6.91776 4.26722C6.30168 3.66537 5.74926 3.0435 5.76638 2.06573C5.77651 1.4986 6.00172 0.979939 6.40078 0.605228C6.82275 0.209298 7.39977 0 8.06962 0C8.74068 0.00482254 9.24922 0.196277 9.58125 0.56906C9.89568 0.922311 10.0469 1.43254 10.0302 2.08575H10.0297Z" fill="#0DE34B"/>
<path d="M14.2495 6.99552L14.2584 0.260116C14.2586 0.243237 14.2555 0.226503 14.2492 0.210854C14.2429 0.195205 14.2335 0.180979 14.2217 0.168995C14.2098 0.157035 14.1956 0.147558 14.18 0.14112C14.1644 0.134706 14.1477 0.131452 14.1308 0.131596H12.0239C11.953 0.131596 11.9219 0.192601 11.9016 0.232869L8.85086 6.95428V6.95549L8.84966 6.95718C8.8159 7.03988 8.88004 7.12838 8.9695 7.12838H10.4423C10.5219 7.12838 10.5747 7.10426 10.6005 7.05411L10.893 6.35122C10.9289 6.25742 10.9356 6.24875 11.0379 6.24875H12.4451C12.543 6.24875 12.5449 6.25067 12.5435 6.3464L12.5119 6.99986C12.5116 7.01669 12.5147 7.03342 12.521 7.04905C12.5273 7.06469 12.5367 7.0789 12.5485 7.09088C12.5604 7.10284 12.5745 7.11232 12.5901 7.11876C12.6057 7.12519 12.6224 7.12847 12.6392 7.12838H14.1272C14.1456 7.12859 14.1639 7.12478 14.1807 7.11721C14.1974 7.10962 14.2124 7.09845 14.2244 7.08449C14.2347 7.07234 14.2423 7.05811 14.2467 7.04275C14.251 7.02739 14.252 7.01126 14.2495 6.99552ZM11.6429 4.74677C11.6318 4.74681 11.6207 4.7464 11.6096 4.74556C11.6044 4.74513 11.5994 4.74358 11.5949 4.741C11.5905 4.73845 11.5866 4.7349 11.5836 4.73068C11.5806 4.72646 11.5786 4.72162 11.5776 4.71653C11.5767 4.71144 11.5769 4.70618 11.5783 4.70119C11.5811 4.69155 11.5852 4.67829 11.5913 4.66213L12.6464 2.05121C12.6559 2.02543 12.6669 2.00023 12.6792 1.97573C12.6964 1.94053 12.7171 1.93812 12.7236 1.96416C12.7291 1.98586 12.6026 4.64501 12.6026 4.64501C12.5927 4.7446 12.5881 4.74869 12.49 4.75689L11.6438 4.74725H11.6419L11.6429 4.74677Z" fill="#0DE34B"/>
<path d="M17.251 0.131583H16.1324C16.0733 0.131583 16.007 0.162929 15.9916 0.233338L14.4348 6.99213C14.4314 7.00737 14.4316 7.02318 14.4353 7.03837C14.4389 7.05354 14.4461 7.06767 14.4561 7.07966C14.469 7.09494 14.4852 7.10722 14.5034 7.11563C14.5216 7.12402 14.5414 7.12839 14.5614 7.12836H15.9595C16.0347 7.12836 16.0861 7.09147 16.1001 7.02757L16.2698 6.26151C16.2819 6.20171 16.2611 6.15542 16.2076 6.12745C16.1825 6.11452 16.1574 6.1015 16.1324 6.08838L15.8901 5.96227L15.6489 5.83641L15.5556 5.78794C15.548 5.78415 15.5416 5.77829 15.5373 5.77104C15.5329 5.7638 15.5306 5.75543 15.5308 5.74695C15.5311 5.73438 15.5363 5.72247 15.5453 5.71372C15.5544 5.70497 15.5664 5.70012 15.579 5.70017L16.3451 5.70354C16.5741 5.70475 16.8034 5.68859 17.0289 5.64712C18.6155 5.35415 19.6693 4.08341 19.6996 2.35429C19.7257 0.878594 18.902 0.130859 17.2522 0.130859L17.251 0.131583ZM16.8702 4.15358H16.8403C16.7731 4.15358 16.7612 4.14635 16.7593 4.14393C16.7581 4.14225 17.2011 2.19732 17.2013 2.19467C17.2126 2.13848 17.2121 2.10617 17.1774 2.08712C17.1331 2.06253 16.4864 1.72157 16.4864 1.72157C16.4788 1.71762 16.4726 1.71164 16.4683 1.70431C16.464 1.69698 16.4618 1.68861 16.462 1.6801C16.4623 1.66771 16.4675 1.65594 16.4763 1.64731C16.4852 1.63865 16.4971 1.6338 16.5095 1.6338H17.5321C17.8504 1.64345 18.0279 1.92822 18.0194 2.41457C18.0047 3.25635 17.6045 4.12392 16.8702 4.15358Z" fill="#0DE34B"/>
<path d="M5.74132 3.37858V3.38171L5.48211 4.50681C5.46812 4.57047 5.40446 4.61701 5.33116 4.61701H5.01794C5.00665 4.61705 4.99568 4.62074 4.98664 4.62752C4.9776 4.63429 4.97099 4.64379 4.96778 4.65462C4.67891 5.63456 4.2878 6.30803 3.77131 6.7124C3.33198 7.05673 2.79041 7.21732 2.06678 7.21732C1.41671 7.21732 0.978337 7.00826 0.606519 6.59545C0.115102 6.05002 -0.0879269 5.15689 0.0350479 4.08098C0.256885 2.06106 1.30458 0.0228136 3.32185 0.0228136C3.93552 0.0175088 4.41729 0.206793 4.75245 0.584639C5.10691 0.984427 5.28679 1.58628 5.28776 2.37428C5.28689 2.40881 5.27254 2.44165 5.24783 2.46579C5.22311 2.48993 5.18993 2.50348 5.15538 2.50353H3.67727C3.65137 2.50273 3.62675 2.49205 3.6085 2.47365C3.59025 2.45525 3.57974 2.43056 3.57913 2.40467C3.56708 1.85972 3.40552 1.59448 3.08434 1.59448C2.51769 1.59448 2.18349 2.36367 2.00626 2.78999C1.75862 3.38557 1.63251 4.03251 1.65735 4.67681C1.66917 4.97677 1.71739 5.3985 2.00216 5.57331C2.25462 5.72812 2.61487 5.6254 2.83308 5.45396C3.05106 5.28227 3.2266 4.98545 3.30039 4.71466C3.31076 4.67705 3.31148 4.64787 3.30159 4.63485C3.29123 4.62135 3.26253 4.61821 3.24059 4.61821H2.86106C2.84097 4.61828 2.8211 4.61394 2.80287 4.60553C2.78462 4.59711 2.76844 4.58481 2.75544 4.5695C2.74548 4.55754 2.73839 4.54344 2.73475 4.52832C2.73111 4.51318 2.73102 4.49741 2.73446 4.48221L2.99392 3.35519C3.0067 3.29756 3.05902 3.25391 3.1234 3.2462V3.2433H5.61424C5.62003 3.2433 5.62606 3.2433 5.6316 3.24451C5.69623 3.25295 5.7418 3.31299 5.74059 3.37858H5.74132Z" fill="#0DE34B"/>
</svg>
