<svg width="256" height="256" viewBox="0 0 256 256" fill="none" xmlns="http://www.w3.org/2000/svg">
<path d="M236 0H20C8.95431 0 0 8.95431 0 20V236C0 247.046 8.95431 256 20 256H236C247.046 256 256 247.046 256 236V20C256 8.95431 247.046 0 236 0Z" fill="#F5F7FA"/>
<path d="M143.626 58.1073C136.076 49.1239 129.574 40.0002 128.246 38.1053C128.106 37.9649 127.896 37.9649 127.756 38.1053C126.428 40.0002 119.926 49.1239 112.376 58.1073C47.5687 140.993 122.583 196.929 122.583 196.929L123.212 197.349C123.771 205.982 125.17 218.404 125.17 218.404H127.966H130.762C130.762 218.404 132.161 206.052 132.72 197.349L133.349 196.858C133.419 196.858 208.434 140.993 143.626 58.1073ZM127.966 195.665C127.966 195.665 124.61 192.787 123.701 191.313V191.173L127.756 100.919C127.756 100.638 128.176 100.638 128.176 100.919L132.231 191.173V191.313C131.322 192.787 127.966 195.665 127.966 195.665Z" fill="#00684A"/>
</svg>
