<svg width="49" height="26" viewBox="0 0 49 26" fill="none" xmlns="http://www.w3.org/2000/svg">
<path d="M24.2289 0.785034C21.0788 0.785057 17.9597 1.10597 15.0495 1.72946C12.1393 2.35295 9.49505 3.26679 7.26774 4.41882C5.04044 5.57084 3.27369 6.93848 2.06839 8.44365C0.863089 9.94881 0.242834 11.562 0.243042 13.1912C0.242625 14.8204 0.862726 16.4337 2.06794 17.9389C3.27314 19.4442 5.03986 20.8119 7.26718 21.964C9.49451 23.1162 12.1388 24.0301 15.0491 24.6536C17.9594 25.2772 21.0787 25.5981 24.2289 25.5981C27.379 25.5981 30.4984 25.2772 33.4087 24.6537C36.319 24.0301 38.9634 23.1162 41.1907 21.9641C43.4181 20.812 45.1849 19.4442 46.3901 17.939C47.5953 16.4337 48.2154 14.8204 48.215 13.1912C48.2152 11.562 47.5949 9.94878 46.3896 8.44361C45.1843 6.93843 43.4175 5.57078 41.1902 4.41876C38.9628 3.26673 36.3186 2.35289 33.4083 1.72941C30.4981 1.10593 27.3789 0.785034 24.2289 0.785034ZM21.6565 3.8878H24.7777L24.1197 7.31414H27.0773C29.7059 7.4784 30.6912 8.78422 30.3638 10.4169L29.2132 17.1095H25.9283L27.0773 11.069C27.2426 10.2527 27.2426 9.76318 26.092 9.76318H23.6271L22.1491 17.1095H19.0279L21.6565 3.8878ZM9.60837 7.31414H15.6852C18.3137 7.4784 19.6297 8.78422 19.6297 11.069C19.6297 14.9865 16.5068 17.2721 13.7146 17.1095H10.7583L10.1004 20.5374H6.97864L9.60837 7.31414ZM31.6219 7.31414H37.7007C40.3293 7.4784 41.6436 8.78422 41.6436 11.069C41.6436 14.9865 38.5223 17.2721 35.7285 17.1095H32.7725L32.1146 20.5374H28.9934L31.6219 7.31414ZM12.2361 9.76318L11.4145 14.6596H13.3859C14.8645 14.497 16.1795 14.0075 16.3431 11.2316C16.3431 10.2527 15.5215 9.76318 14.3717 9.76318H12.2361ZM34.2505 9.76318L33.4289 14.6596H35.3995C36.8791 14.497 38.1934 14.0075 38.357 11.2316C38.357 10.2527 37.5354 9.76318 36.3864 9.76318H34.2505Z" fill="#6181B6"/>
</svg>
