<?xml version="1.0" encoding="UTF-8"?>
<svg id="Lag_1" data-name="Lag 1" xmlns="http://www.w3.org/2000/svg" viewBox="0 0 2500 2437.5">
  <defs>
    <style>
      .cls-1 {
        fill: none;
      }

      .cls-1, .cls-2, .cls-3, .cls-4, .cls-5, .cls-6, .cls-7 {
        stroke-width: 0px;
      }

      .cls-2 {
        fill: #1abcfe;
      }

      .cls-3 {
        fill: #0acf83;
      }

      .cls-4 {
        fill: #1e1e1e;
      }

      .cls-5 {
        fill: #a259ff;
      }

      .cls-6 {
        fill: #ff7262;
      }

      .cls-7 {
        fill: #f24e1e;
      }
    </style>
  </defs>
  <path class="cls-4" d="m442.71,0h1614.58c244.79,0,442.71,197.92,442.71,442.71v1552.08c0,244.79-197.92,442.71-442.71,442.71H442.71c-244.79,0-442.71-197.92-442.71-442.71V442.71C0,197.92,197.92,0,442.71,0Z"/>
  <g>
    <path class="cls-1" d="m712.12,412.39h1075.75v1613.33H712.12V412.39Z"/>
    <path class="cls-2" d="m1249.69,1219.06c0-148.27,120.21-269.09,269.09-269.09s269.09,120.21,269.09,269.09-120.21,269.09-269.09,269.09-269.09-120.82-269.09-269.09h0Z"/>
    <path class="cls-3" d="m712.12,1756.63c0-148.27,120.21-269.09,269.09-269.09h269.09v269.09c0,148.27-120.21,269.09-269.09,269.09s-269.09-120.21-269.09-269.09h0Z"/>
    <path class="cls-6" d="m1249.69,412.39v537.57h269.09c148.27,0,269.09-120.21,269.09-269.09s-120.21-269.09-269.09-269.09h-269.09v.61Z"/>
    <path class="cls-7" d="m712.12,681.48c0,148.27,120.21,269.09,269.09,269.09h269.09V412.39h-269.09c-148.88,0-269.09,120.21-269.09,269.09Z"/>
    <path class="cls-5" d="m712.12,1219.06c0,148.27,120.21,269.09,269.09,269.09h269.09v-538.18h-269.09c-148.88,0-269.09,120.82-269.09,269.09Z"/>
  </g>
</svg>